<svg width="28" height="28" viewBox="0 0 28 28" fill="none" xmlns="http://www.w3.org/2000/svg">
<path d="M14 12.6667C13.6464 12.6667 13.3073 12.8072 13.0572 13.0572C12.8072 13.3073 12.6667 13.6464 12.6667 14V19.3334C12.6667 19.687 12.8072 20.0261 13.0572 20.2762C13.3073 20.5262 13.6464 20.6667 14 20.6667C14.3536 20.6667 14.6928 20.5262 14.9428 20.2762C15.1929 20.0261 15.3334 19.687 15.3334 19.3334V14C15.3334 13.6464 15.1929 13.3073 14.9428 13.0572C14.6928 12.8072 14.3536 12.6667 14 12.6667ZM14.5067 7.44002C14.1821 7.30666 13.818 7.30666 13.4934 7.44002C13.3297 7.50348 13.1802 7.59863 13.0534 7.72002C12.9356 7.84962 12.8409 7.99844 12.7734 8.16002C12.6987 8.31826 12.6622 8.49179 12.6667 8.66669C12.6657 8.84216 12.6993 9.01611 12.7657 9.17856C12.832 9.34101 12.9298 9.48877 13.0534 9.61335C13.183 9.73113 13.3318 9.82583 13.4934 9.89335C13.6954 9.97634 13.9146 10.0084 14.132 9.98684C14.3493 9.96523 14.5579 9.89058 14.7396 9.76945C14.9213 9.64831 15.0705 9.4844 15.174 9.29212C15.2776 9.09983 15.3323 8.88507 15.3334 8.66669C15.3284 8.31366 15.1903 7.97553 14.9467 7.72002C14.8199 7.59863 14.6704 7.50348 14.5067 7.44002ZM14 0.666687C11.3629 0.666687 8.78508 1.44867 6.59242 2.91376C4.39977 4.37884 2.6908 6.46123 1.68163 8.89757C0.672464 11.3339 0.40842 14.0148 0.922889 16.6012C1.43736 19.1876 2.70724 21.5634 4.57194 23.4281C6.43664 25.2928 8.81241 26.5627 11.3988 27.0772C13.9852 27.5916 16.6661 27.3276 19.1025 26.3184C21.5388 25.3092 23.6212 23.6003 25.0863 21.4076C26.5514 19.215 27.3334 16.6371 27.3334 14C27.3334 12.2491 26.9885 10.5152 26.3184 8.89757C25.6484 7.2799 24.6662 5.81004 23.4281 4.57193C22.19 3.33382 20.7201 2.35169 19.1025 1.68163C17.4848 1.01156 15.751 0.666687 14 0.666687ZM14 24.6667C11.8904 24.6667 9.82807 24.0411 8.07394 22.869C6.31982 21.697 4.95265 20.0311 4.14531 18.082C3.33798 16.1329 3.12674 13.9882 3.53832 11.9191C3.94989 9.84993 4.96579 7.94931 6.45755 6.45755C7.94931 4.96579 9.84993 3.94989 11.9191 3.53831C13.9882 3.12674 16.1329 3.33797 18.082 4.14531C20.0311 4.95264 21.697 6.31981 22.869 8.07394C24.0411 9.82806 24.6667 11.8904 24.6667 14C24.6667 16.829 23.5429 19.5421 21.5425 21.5425C19.5421 23.5429 16.829 24.6667 14 24.6667Z" fill="#6E5404"/>
</svg>
