<svg width="28" height="28" viewBox="0 0 28 28" fill="none" xmlns="http://www.w3.org/2000/svg">
<path d="M14 0.666687C11.3629 0.666687 8.78508 1.44867 6.59242 2.91376C4.39977 4.37884 2.6908 6.46123 1.68163 8.89757C0.672464 11.3339 0.40842 14.0148 0.922889 16.6012C1.43736 19.1876 2.70724 21.5634 4.57194 23.4281C6.43664 25.2928 8.81241 26.5627 11.3988 27.0772C13.9852 27.5916 16.6661 27.3276 19.1025 26.3184C21.5388 25.3092 23.6212 23.6003 25.0863 21.4076C26.5514 19.215 27.3334 16.6371 27.3334 14C27.3334 12.2491 26.9885 10.5152 26.3184 8.89757C25.6484 7.2799 24.6662 5.81004 23.4281 4.57193C22.19 3.33382 20.7201 2.35169 19.1025 1.68163C17.4848 1.01156 15.751 0.666687 14 0.666687ZM14 24.6667C11.1711 24.6667 8.45794 23.5429 6.45755 21.5425C4.45717 19.5421 3.33336 16.829 3.33336 14C3.33041 11.6311 4.12405 9.33008 5.58669 7.46669L20.5334 22.4134C18.67 23.876 16.3689 24.6696 14 24.6667ZM22.4134 20.5334L7.46669 5.58669C9.33009 4.12404 11.6312 3.33041 14 3.33335C16.829 3.33335 19.5421 4.45716 21.5425 6.45755C23.5429 8.45794 24.6667 11.171 24.6667 14C24.6696 16.3689 23.876 18.67 22.4134 20.5334Z" fill="#530C0C"/>
</svg>
