<svg width="28" height="28" viewBox="0 0 28 28" fill="none" xmlns="http://www.w3.org/2000/svg">
<path d="M17.6267 9.72002L11.9067 15.4534L9.70669 13.2534C9.58716 13.1138 9.44007 13.0004 9.27465 12.9204C9.10923 12.8404 8.92906 12.7954 8.74543 12.7883C8.56181 12.7812 8.3787 12.8121 8.2076 12.8792C8.0365 12.9462 7.8811 13.0479 7.75116 13.1778C7.62122 13.3078 7.51954 13.4632 7.45251 13.6343C7.38548 13.8054 7.35454 13.9885 7.36163 14.1721C7.36872 14.3557 7.41369 14.5359 7.49373 14.7013C7.57376 14.8667 7.68712 15.0138 7.82669 15.1334L10.96 18.28C11.0846 18.4036 11.2324 18.5014 11.3948 18.5677C11.5573 18.6341 11.7312 18.6677 11.9067 18.6667C12.2565 18.6652 12.5917 18.5263 12.84 18.28L19.5067 11.6134C19.6317 11.4894 19.7309 11.3419 19.7985 11.1795C19.8662 11.017 19.9011 10.8427 19.9011 10.6667C19.9011 10.4907 19.8662 10.3164 19.7985 10.1539C19.7309 9.99144 19.6317 9.84397 19.5067 9.72002C19.2569 9.47169 18.9189 9.3323 18.5667 9.3323C18.2144 9.3323 17.8765 9.47169 17.6267 9.72002ZM14 0.666687C11.3629 0.666687 8.78508 1.44867 6.59242 2.91376C4.39977 4.37884 2.6908 6.46123 1.68163 8.89757C0.672464 11.3339 0.40842 14.0148 0.922889 16.6012C1.43736 19.1876 2.70724 21.5634 4.57194 23.4281C6.43664 25.2928 8.81241 26.5627 11.3988 27.0772C13.9852 27.5916 16.6661 27.3276 19.1025 26.3184C21.5388 25.3092 23.6212 23.6003 25.0863 21.4076C26.5514 19.215 27.3334 16.6371 27.3334 14C27.3334 12.2491 26.9885 10.5152 26.3184 8.89757C25.6484 7.2799 24.6662 5.81004 23.4281 4.57193C22.19 3.33382 20.7201 2.35169 19.1025 1.68163C17.4848 1.01156 15.751 0.666687 14 0.666687ZM14 24.6667C11.8904 24.6667 9.82807 24.0411 8.07394 22.869C6.31982 21.697 4.95265 20.0311 4.14531 18.082C3.33798 16.1329 3.12674 13.9882 3.53832 11.9191C3.94989 9.84993 4.96579 7.94931 6.45755 6.45755C7.94931 4.96579 9.84993 3.94989 11.9191 3.53831C13.9882 3.12674 16.1329 3.33797 18.082 4.14531C20.0311 4.95264 21.697 6.31981 22.869 8.07394C24.0411 9.82806 24.6667 11.8904 24.6667 14C24.6667 16.829 23.5429 19.5421 21.5425 21.5425C19.5421 23.5429 16.829 24.6667 14 24.6667Z" fill="#0F552C"/>
</svg>
