<svg width="14" height="20" viewBox="0 0 14 20" fill="none" xmlns="http://www.w3.org/2000/svg">
<path d="M12.6 11.375H1.40001C0.157512 11.375 -0.472488 12.8574 0.411262 13.7211L6.01126 19.2211C6.55814 19.7582 7.44626 19.7582 7.99314 19.2211L13.5931 13.7211C14.4681 12.8574 13.8425 11.375 12.6 11.375ZM7.00001 18.25L1.40001 12.75H12.6L7.00001 18.25ZM1.40001 8.625H12.6C13.8425 8.625 14.4725 7.14257 13.5888 6.2789L7.98876 0.7789C7.44189 0.241791 6.55376 0.241791 6.00689 0.7789L0.406887 6.2789C-0.468113 7.14257 0.157512 8.625 1.40001 8.625ZM7.00001 1.74999L12.6 7.24999H1.40001L7.00001 1.74999Z" fill="#FEAF00"/>
</svg>
